<?xml version="1.0" standalone="no"?>
<!DOCTYPE svg PUBLIC "-//W3C//DTD SVG 20010904//EN"
 "http://www.w3.org/TR/2001/REC-SVG-20010904/DTD/svg10.dtd">
<svg version="1.0" xmlns="http://www.w3.org/2000/svg"
 width="411.000000pt" height="319.000000pt" viewBox="0 0 411.000000 319.000000"
 preserveAspectRatio="xMidYMid meet">

<g transform="translate(0.000000,319.000000) scale(0.100000,-0.100000)"
fill="#000000" stroke="none">
<path d="M1685 3160 c-93 -4 -230 -5 -303 -2 -77 2 -138 0 -145 -6 -7 -6 -99
-10 -212 -10 -204 0 -268 -7 -386 -41 -149 -43 -212 -90 -400 -303 -87 -98
-115 -147 -133 -236 -8 -40 -24 -88 -36 -106 -17 -28 -21 -54 -24 -168 -2 -91
-8 -144 -18 -164 -19 -38 -16 -179 7 -259 9 -33 20 -75 25 -94 5 -18 13 -38
19 -44 6 -6 11 -17 11 -24 0 -8 9 -33 20 -55 11 -23 20 -45 20 -48 0 -10 96
-156 138 -210 65 -83 187 -186 272 -230 57 -29 207 -78 263 -86 23 -3 76 -14
117 -24 72 -18 187 -36 203 -32 4 1 26 -2 50 -7 59 -13 213 -21 497 -26 135
-3 259 -7 275 -10 50 -10 113 -45 140 -78 15 -18 33 -40 41 -50 8 -9 14 -21
14 -26 0 -5 6 -22 14 -38 24 -45 45 -132 54 -214 7 -67 0 -145 -21 -234 -6
-25 -49 -96 -102 -170 -78 -109 -89 -139 -56 -150 75 -23 457 305 596 512 69
101 157 268 176 331 7 23 17 46 23 51 26 22 227 60 401 76 143 13 304 77 422
167 210 160 365 400 429 663 39 160 18 561 -36 663 -4 10 -16 40 -26 67 -51
149 -176 345 -262 413 -130 103 -370 165 -727 188 -49 3 -119 8 -155 11 -97 7
-990 10 -1185 3z m1395 -64 c391 -41 577 -101 666 -214 21 -26 52 -63 70 -82
72 -78 137 -241 169 -425 22 -126 30 -331 15 -411 -66 -369 -256 -683 -485
-801 -168 -87 -288 -114 -525 -120 -96 -2 -190 -8 -208 -14 -46 -15 -73 -57
-122 -189 -53 -145 -125 -277 -206 -377 -76 -95 -271 -290 -280 -280 -4 3 12
38 35 76 57 94 73 149 72 250 -1 134 -21 213 -89 350 -31 61 -47 80 -97 116
-106 75 -90 72 -435 80 -450 9 -484 13 -732 75 -66 17 -134 30 -153 30 -52 0
-149 34 -223 78 -184 109 -368 355 -433 577 -29 100 -36 250 -15 349 9 43 16
119 16 170 0 76 5 101 27 151 14 33 35 87 47 121 15 44 44 89 102 160 159 194
237 250 409 294 104 27 379 49 630 50 109 0 201 3 203 5 2 2 315 2 696 1 555
-3 721 -6 846 -20z"/>
<path d="M505 2746 c-28 -28 -35 -72 -10 -62 10 3 15 -1 15 -13 0 -32 24 -44
44 -22 21 23 14 41 -15 41 -20 0 -26 15 -10 24 13 8 20 45 10 52 -5 3 -20 -6
-34 -20z"/>
<path d="M2848 1569 c-19 -10 -25 -59 -9 -59 14 0 52 51 45 61 -7 11 -15 11
-36 -2z"/>
<path d="M2927 1434 c-4 -4 -7 -15 -7 -24 0 -13 6 -16 25 -12 17 3 25 10 23
21 -3 17 -29 26 -41 15z"/>
</g>
</svg>
